<?xml version="1.0" encoding="UTF-8" standalone="no"?>
<!-- Created with Inkscape (http://www.inkscape.org/) -->

<svg
   xmlns:dc="http://purl.org/dc/elements/1.1/"
   xmlns:cc="http://creativecommons.org/ns#"
   xmlns:rdf="http://www.w3.org/1999/02/22-rdf-syntax-ns#"
   xmlns:svg="http://www.w3.org/2000/svg"
   xmlns="http://www.w3.org/2000/svg"
   xmlns:sodipodi="http://sodipodi.sourceforge.net/DTD/sodipodi-0.dtd"
   xmlns:inkscape="http://www.inkscape.org/namespaces/inkscape"
   width="93.50248mm"
   height="66.042442mm"
   viewBox="0 0 331.308 234.00865"
   id="svg2"
   version="1.1"
   inkscape:version="0.91 r13725"
   sodipodi:docname="spacewiki.svg"
   inkscape:export-filename="/home/tdfischer/Projects/nb/spacewiki/static/img/spacewiki.png"
   inkscape:export-xdpi="22.27"
   inkscape:export-ydpi="22.27">
  <defs
     id="defs4" />
  <sodipodi:namedview
     id="base"
     pagecolor="#ffffff"
     bordercolor="#666666"
     borderopacity="1.0"
     inkscape:pageopacity="0.0"
     inkscape:pageshadow="2"
     inkscape:zoom="0.7"
     inkscape:cx="116.99782"
     inkscape:cy="205.14444"
     inkscape:document-units="px"
     inkscape:current-layer="layer1"
     showgrid="false"
     fit-margin-top="0"
     fit-margin-left="0"
     fit-margin-right="0"
     fit-margin-bottom="0"
     inkscape:window-width="1366"
     inkscape:window-height="704"
     inkscape:window-x="0"
     inkscape:window-y="27"
     inkscape:window-maximized="1" />
  <metadata
     id="metadata7">
    <rdf:RDF>
      <cc:Work
         rdf:about="">
        <dc:format>image/svg+xml</dc:format>
        <dc:type
           rdf:resource="http://purl.org/dc/dcmitype/StillImage" />
        <dc:title></dc:title>
      </cc:Work>
    </rdf:RDF>
  </metadata>
  <g
     inkscape:label="Layer 1"
     inkscape:groupmode="layer"
     id="layer1"
     transform="translate(-73.417554,-443.05)">
    <g
       id="g4173"
       transform="matrix(0.8660254,-0.5,0.5,0.8660254,-248.92866,197.99534)">
      <path
         id="path4169"
         d="m 342.48438,505.52734 c -1.0968,-1.83723 -2.13638,-3.712 -3.33204,-5.48046 -1.48905,-2.20242 -3.13383,-4.28594 -4.76953,-6.375 -7.68468,-1.42813 -15.73979,-2.63752 -24.03125,-3.68946 1.44145,1.28176 2.91778,2.52712 4.28125,3.89063 2.22508,2.22514 4.34345,4.55667 6.34766,6.98633 0.22066,0.26749 0.40518,0.56411 0.62305,0.83398 7.23863,1.1355 14.2269,2.4045 20.88086,3.83398 z"
         style="color:#000000;font-style:normal;font-variant:normal;font-weight:normal;font-stretch:normal;font-size:medium;line-height:normal;font-family:sans-serif;text-indent:0;text-align:start;text-decoration:none;text-decoration-line:none;text-decoration-style:solid;text-decoration-color:#000000;letter-spacing:normal;word-spacing:normal;text-transform:none;direction:ltr;block-progression:tb;writing-mode:lr-tb;baseline-shift:baseline;text-anchor:start;white-space:normal;clip-rule:nonzero;display:inline;overflow:visible;visibility:visible;opacity:1;isolation:auto;mix-blend-mode:normal;color-interpolation:sRGB;color-interpolation-filters:linearRGB;solid-color:#000000;solid-opacity:1;fill:#ffffff;fill-opacity:1;fill-rule:nonzero;stroke:none;stroke-width:10;stroke-linecap:butt;stroke-linejoin:miter;stroke-miterlimit:4;stroke-dasharray:none;stroke-dashoffset:0;stroke-opacity:1;color-rendering:auto;image-rendering:auto;shape-rendering:auto;text-rendering:auto;enable-background:accumulate"
         inkscape:connector-curvature="0" />
      <path
         id="path4167"
         d="m 354.02539,595.04492 c -0.21011,0.72523 -0.34227,1.48196 -0.56641,2.20117 -0.96451,3.09499 -2.11371,6.10625 -3.33007,9.08203 8.98497,-2.09085 17.47445,-4.41531 25.24609,-7.00585 16.8426,-5.6142 30.63638,-12.30335 40.54883,-20.11524 9.91245,-7.81189 16.21875,-17.14905 16.21875,-27.55859 0,-10.40955 -6.3063,-19.74866 -16.21875,-27.56055 -9.91245,-7.81189 -23.70623,-14.50103 -40.54883,-20.11523 -12.16693,-4.05565 -25.97826,-7.51059 -40.99219,-10.30078 1.6357,2.08906 3.28048,4.17258 4.76953,6.375 1.19566,1.76846 2.23524,3.64323 3.33204,5.48046 10.75809,2.31119 20.78154,4.94932 29.72851,7.93164 16.11878,5.37293 29.00006,11.7668 37.52149,18.48243 8.52141,6.71562 12.4082,13.35078 12.4082,19.70703 0,6.35624 -3.8868,12.98945 -12.4082,19.70508 -8.52142,6.71562 -21.40271,13.10949 -37.52149,18.48242 -5.6398,1.87993 -11.80239,3.5869 -18.1875,5.20898 z"
         style="color:#000000;font-style:normal;font-variant:normal;font-weight:normal;font-stretch:normal;font-size:medium;line-height:normal;font-family:sans-serif;text-indent:0;text-align:start;text-decoration:none;text-decoration-line:none;text-decoration-style:solid;text-decoration-color:#000000;letter-spacing:normal;word-spacing:normal;text-transform:none;direction:ltr;block-progression:tb;writing-mode:lr-tb;baseline-shift:baseline;text-anchor:start;white-space:normal;clip-rule:nonzero;display:inline;overflow:visible;visibility:visible;opacity:1;isolation:auto;mix-blend-mode:normal;color-interpolation:sRGB;color-interpolation-filters:linearRGB;solid-color:#000000;solid-opacity:1;fill:#ffffff;fill-opacity:1;fill-rule:nonzero;stroke:none;stroke-width:10;stroke-linecap:butt;stroke-linejoin:miter;stroke-miterlimit:4;stroke-dasharray:none;stroke-dashoffset:0;stroke-opacity:1;color-rendering:auto;image-rendering:auto;shape-rendering:auto;text-rendering:auto;enable-background:accumulate"
         inkscape:connector-curvature="0" />
      <path
         id="path4165"
         d="m 336.77734,598.92188 c -0.3737,0.97023 -0.66903,1.97856 -1.07226,2.93359 -1.19406,2.82808 -2.53131,5.58058 -3.97461,8.26562 6.37204,-1.13838 12.48607,-2.41712 18.39844,-3.79297 1.21636,-2.97578 2.36556,-5.98704 3.33007,-9.08203 0.22414,-0.71921 0.3563,-1.47594 0.56641,-2.20117 -5.50242,1.39785 -11.25263,2.69142 -17.24805,3.87696 z"
         style="color:#000000;font-style:normal;font-variant:normal;font-weight:normal;font-stretch:normal;font-size:medium;line-height:normal;font-family:sans-serif;text-indent:0;text-align:start;text-decoration:none;text-decoration-line:none;text-decoration-style:solid;text-decoration-color:#000000;letter-spacing:normal;word-spacing:normal;text-transform:none;direction:ltr;block-progression:tb;writing-mode:lr-tb;baseline-shift:baseline;text-anchor:start;white-space:normal;clip-rule:nonzero;display:inline;overflow:visible;visibility:visible;opacity:1;isolation:auto;mix-blend-mode:normal;color-interpolation:sRGB;color-interpolation-filters:linearRGB;solid-color:#000000;solid-opacity:1;fill:#ffffff;fill-opacity:1;fill-rule:nonzero;stroke:none;stroke-width:10;stroke-linecap:butt;stroke-linejoin:miter;stroke-miterlimit:4;stroke-dasharray:none;stroke-dashoffset:0;stroke-opacity:1;color-rendering:auto;image-rendering:auto;shape-rendering:auto;text-rendering:auto;enable-background:accumulate"
         inkscape:connector-curvature="0" />
      <path
         id="path4163"
         d="m 153.22266,598.92188 c 0.3737,0.97023 0.66903,1.97856 1.07226,2.93359 1.19406,2.82808 2.53131,5.58058 3.97461,8.26562 25.91653,4.63005 55.39526,7.24024 86.73047,7.24024 31.33521,0 60.81394,-2.61019 86.73047,-7.24024 1.4433,-2.68504 2.78055,-5.43754 3.97461,-8.26562 0.40323,-0.95503 0.69856,-1.96336 1.07226,-2.93359 -26.81522,5.30245 -58.16579,8.43945 -91.77734,8.43945 -33.61155,0 -64.96212,-3.137 -91.77734,-8.43945 z"
         style="color:#000000;font-style:normal;font-variant:normal;font-weight:normal;font-stretch:normal;font-size:medium;line-height:normal;font-family:sans-serif;text-indent:0;text-align:start;text-decoration:none;text-decoration-line:none;text-decoration-style:solid;text-decoration-color:#000000;letter-spacing:normal;word-spacing:normal;text-transform:none;direction:ltr;block-progression:tb;writing-mode:lr-tb;baseline-shift:baseline;text-anchor:start;white-space:normal;clip-rule:nonzero;display:inline;overflow:visible;visibility:visible;opacity:1;isolation:auto;mix-blend-mode:normal;color-interpolation:sRGB;color-interpolation-filters:linearRGB;solid-color:#000000;solid-opacity:1;fill:#ffffff;fill-opacity:1;fill-rule:nonzero;stroke:none;stroke-width:10;stroke-linecap:butt;stroke-linejoin:miter;stroke-miterlimit:4;stroke-dasharray:none;stroke-dashoffset:0;stroke-opacity:1;color-rendering:auto;image-rendering:auto;shape-rendering:auto;text-rendering:auto;enable-background:accumulate"
         inkscape:connector-curvature="0" />
      <path
         id="path4161"
         d="m 135.97461,595.04492 c 0.21011,0.72523 0.34227,1.48196 0.56641,2.20117 0.96451,3.09499 2.11371,6.10625 3.33007,9.08203 5.91237,1.37585 12.0264,2.65459 18.39844,3.79297 -1.4433,-2.68504 -2.78055,-5.43754 -3.97461,-8.26562 -0.40323,-0.95503 -0.69856,-1.96336 -1.07226,-2.93359 -5.99542,-1.18554 -11.74563,-2.47911 -17.24805,-3.87696 z"
         style="color:#000000;font-style:normal;font-variant:normal;font-weight:normal;font-stretch:normal;font-size:medium;line-height:normal;font-family:sans-serif;text-indent:0;text-align:start;text-decoration:none;text-decoration-line:none;text-decoration-style:solid;text-decoration-color:#000000;letter-spacing:normal;word-spacing:normal;text-transform:none;direction:ltr;block-progression:tb;writing-mode:lr-tb;baseline-shift:baseline;text-anchor:start;white-space:normal;clip-rule:nonzero;display:inline;overflow:visible;visibility:visible;opacity:1;isolation:auto;mix-blend-mode:normal;color-interpolation:sRGB;color-interpolation-filters:linearRGB;solid-color:#000000;solid-opacity:1;fill:#ffffff;fill-opacity:1;fill-rule:nonzero;stroke:none;stroke-width:10;stroke-linecap:butt;stroke-linejoin:miter;stroke-miterlimit:4;stroke-dasharray:none;stroke-dashoffset:0;stroke-opacity:1;color-rendering:auto;image-rendering:auto;shape-rendering:auto;text-rendering:auto;enable-background:accumulate"
         inkscape:connector-curvature="0" />
      <path
         id="path4159"
         d="m 155.61719,493.67188 c -15.01393,2.79019 -28.82526,6.24513 -40.99219,10.30078 -16.842597,5.6142 -30.63638,12.30334 -40.548828,20.11523 -9.912448,7.81189 -16.21875,17.151 -16.21875,27.56055 0,10.40954 6.306302,19.7467 16.21875,27.55859 9.912448,7.81189 23.706231,14.50104 40.548828,20.11524 7.77164,2.59054 16.26112,4.915 25.24609,7.00585 -1.21636,-2.97578 -2.36556,-5.98704 -3.33007,-9.08203 -0.22414,-0.71921 -0.3563,-1.47594 -0.56641,-2.20117 -6.38511,-1.62208 -12.5477,-3.32905 -18.1875,-5.20898 -16.11878,-5.37293 -29.000073,-11.7668 -37.521485,-18.48242 -8.521412,-6.71563 -12.408203,-13.34884 -12.408203,-19.70508 0,-6.35625 3.886791,-12.99141 12.408203,-19.70703 8.521412,-6.71563 21.402705,-13.1095 37.521485,-18.48243 8.94697,-2.98232 18.97042,-5.62045 29.72851,-7.93164 1.0968,-1.83723 2.13638,-3.712 3.33204,-5.48046 1.48905,-2.20242 3.13383,-4.28594 4.76953,-6.375 z"
         style="color:#000000;font-style:normal;font-variant:normal;font-weight:normal;font-stretch:normal;font-size:medium;line-height:normal;font-family:sans-serif;text-indent:0;text-align:start;text-decoration:none;text-decoration-line:none;text-decoration-style:solid;text-decoration-color:#000000;letter-spacing:normal;word-spacing:normal;text-transform:none;direction:ltr;block-progression:tb;writing-mode:lr-tb;baseline-shift:baseline;text-anchor:start;white-space:normal;clip-rule:nonzero;display:inline;overflow:visible;visibility:visible;opacity:1;isolation:auto;mix-blend-mode:normal;color-interpolation:sRGB;color-interpolation-filters:linearRGB;solid-color:#000000;solid-opacity:1;fill:#ffffff;fill-opacity:1;fill-rule:nonzero;stroke:none;stroke-width:10;stroke-linecap:butt;stroke-linejoin:miter;stroke-miterlimit:4;stroke-dasharray:none;stroke-dashoffset:0;stroke-opacity:1;color-rendering:auto;image-rendering:auto;shape-rendering:auto;text-rendering:auto;enable-background:accumulate"
         inkscape:connector-curvature="0" />
      <path
         id="path4136"
         d="m 155.61719,493.67188 c -1.6357,2.08906 -3.28048,4.17258 -4.76953,6.375 -1.19566,1.76846 -2.23524,3.64323 -3.33204,5.48046 6.65396,-1.42948 13.64223,-2.69848 20.88086,-3.83398 0.21787,-0.26987 0.40239,-0.56649 0.62305,-0.83398 2.00421,-2.42966 4.12258,-4.76119 6.34766,-6.98633 1.36347,-1.36351 2.8398,-2.60887 4.28125,-3.89063 -8.29146,1.05194 -16.34657,2.26133 -24.03125,3.68946 z"
         style="color:#000000;font-style:normal;font-variant:normal;font-weight:normal;font-stretch:normal;font-size:medium;line-height:normal;font-family:sans-serif;text-indent:0;text-align:start;text-decoration:none;text-decoration-line:none;text-decoration-style:solid;text-decoration-color:#000000;letter-spacing:normal;word-spacing:normal;text-transform:none;direction:ltr;block-progression:tb;writing-mode:lr-tb;baseline-shift:baseline;text-anchor:start;white-space:normal;clip-rule:nonzero;display:inline;overflow:visible;visibility:visible;opacity:1;isolation:auto;mix-blend-mode:normal;color-interpolation:sRGB;color-interpolation-filters:linearRGB;solid-color:#000000;solid-opacity:1;fill:#ffffff;fill-opacity:1;fill-rule:nonzero;stroke:none;stroke-width:10;stroke-linecap:butt;stroke-linejoin:miter;stroke-miterlimit:4;stroke-dasharray:none;stroke-dashoffset:0;stroke-opacity:1;color-rendering:auto;image-rendering:auto;shape-rendering:auto;text-rendering:auto;enable-background:accumulate"
         inkscape:connector-curvature="0" />
      <path
         inkscape:connector-curvature="0"
         id="path4138"
         d="m 245,449.93359 c -62.63408,0 -113.57227,50.93819 -113.57227,113.57227 0,62.63408 50.93819,113.57031 113.57227,113.57031 62.63408,0 113.57227,-50.93623 113.57227,-113.57031 0,-62.63408 -50.93819,-113.57227 -113.57227,-113.57227 z m 0,15.14258 c 54.45028,0 98.42773,43.97941 98.42773,98.42969 0,54.45028 -43.97745,98.42773 -98.42773,98.42773 -54.45028,0 -98.42773,-43.97745 -98.42773,-98.42773 0,-54.45028 43.97745,-98.42969 98.42773,-98.42969 z"
         style="color:#000000;font-style:normal;font-variant:normal;font-weight:normal;font-stretch:normal;font-size:medium;line-height:normal;font-family:sans-serif;text-indent:0;text-align:start;text-decoration:none;text-decoration-line:none;text-decoration-style:solid;text-decoration-color:#000000;letter-spacing:normal;word-spacing:normal;text-transform:none;direction:ltr;block-progression:tb;writing-mode:lr-tb;baseline-shift:baseline;text-anchor:start;white-space:normal;clip-rule:nonzero;display:inline;overflow:visible;visibility:visible;opacity:1;isolation:auto;mix-blend-mode:normal;color-interpolation:sRGB;color-interpolation-filters:linearRGB;solid-color:#000000;solid-opacity:1;fill:#ffffff;fill-opacity:1;fill-rule:nonzero;stroke:none;stroke-width:15.1428566;stroke-linecap:butt;stroke-linejoin:miter;stroke-miterlimit:4;stroke-dasharray:none;stroke-dashoffset:0;stroke-opacity:1;color-rendering:auto;image-rendering:auto;shape-rendering:auto;text-rendering:auto;enable-background:accumulate" />
    </g>
  </g>
</svg>
